<svg xmlns="http://www.w3.org/2000/svg" style="display: none;">
  
    <symbol id="icon-bus" viewBox="0 0 512 512">
      <path d="m418 53c0-5-4-8-8-8l-308 0c-4 0-8 3-8 8 0 4 4 8 8 8l308 0c4 0 8-4 8-8z m-109 286l-106 0c-4 0-8 3-8 8 0 4 4 8 8 8l106 0c4 0 8-4 8-8 0-5-4-8-8-8z m181-251l-29 0 0-30c0-31-25-57-56-57l-298 0c-31 0-56 26-56 57l0 30-29 0c-12 0-22 10-22 22l0 66c0 13 10 22 22 22l4 0c5 0 8-3 8-8 0-4-3-8-8-8l-4 0c-3 0-6-2-6-6l0-66c0-3 3-6 6-6l29 0 0 331c0 8 4 14 10 17l0 50c0 5 4 9 9 9l69 0c4 0 8-4 8-9l0-24c0-4-4-8-8-8-4 0-8 4-8 8l0 16-53 0 0-40 356 0 0 40-53 0 0-16c0-4-4-8-8-8-4 0-8 4-8 8l0 24c0 5 4 9 8 9l69 0c5 0 9-4 9-9l0-50c6-3 10-9 10-17l0-331 29 0c3 0 6 3 6 6l0 66c0 4-3 6-6 6l-4 0c-5 0-8 4-8 8 0 5 3 8 8 8l4 0c12 0 22-9 22-22l0-66c0-12-10-22-22-22z m-423-30c0-22 18-40 40-40l298 0c22 0 40 18 40 40l0 30-378 0z m378 335l-77 0c-10 0-19-9-19-19l0-19 72 0c4 0 8-4 8-8 0-5-4-8-8-8l-80 0c-4 0-8 3-8 8l0 27c0 19 16 35 35 35l77 0 0 26c0 1-1 3-3 3l-372 0c-2 0-3-2-3-3l0-26 77 0c19 0 35-16 35-35l0-27c0-5-4-8-8-8l-80 0c-4 0-8 3-8 8 0 4 4 8 8 8l72 0 0 19c0 10-9 19-19 19l-77 0 0-289 181 0 0 201-157 0c-4 0-8 3-8 8 0 4 4 8 8 8l330 0c4 0 8-4 8-8 0-5-4-8-8-8l-157 0 0-201 181 0z"/>
    </symbol>
  
    <symbol id="icon-airplane" viewBox="0 0 512 512">
      <path d="m511 305c-2-2-4-4-7-4l-146 0c-4 0-8 4-8 8 0 5 4 8 8 8l132 0-2 5c-4 6-16 13-29 13l-131 0c4-10 6-20 6-32 0-15-4-30-11-43l75 0c4 0 8-3 8-8 0-4-4-8-8-8l-86 0c-9-10-20-17-31-21l0-83c0-13-9-25-22-30-2-1-4-1-6 0-13 5-22 17-22 30l0 83c-11 4-22 11-31 21l-86 0c-4 0-8 4-8 8 0 5 4 8 8 8l75 0c-7 13-11 28-11 43 0 12 2 22 6 32l-131 0c-13 0-25-7-29-13l-2-5 132 0c4 0 8-3 8-8 0-4-4-8-8-8l-146 0c-3 0-5 2-7 4-1 2-1 5 0 8l9 17c6 12 25 22 43 22l35 0c-4 5-5 11-5 17 0 19 15 34 34 34 18 0 34-15 34-34 0-6-2-12-5-17l46 0c14 22 37 37 64 37 27 0 50-15 64-37l46 0c-3 5-5 11-5 17 0 19 16 34 34 34 19 0 34-15 34-34 0-6-1-12-5-17l35 0c18 0 37-10 43-22l9-17c1-3 1-6 0-8z m-377 64c0 10-8 18-17 18-10 0-18-8-18-18 0-10 8-17 18-17 9 0 17 7 17 17z m114-229c0-5 3-10 8-14 5 4 8 9 8 14l0 79c-3-1-5-1-8-1-3 0-5 0-8 1z m8 232c-34 0-62-31-62-69 0-38 28-68 62-68 34 0 62 30 62 68 0 38-28 69-62 69z m157-3c0 10-8 18-18 18-9 0-17-8-17-18 0-10 8-17 17-17 10 0 18 7 18 17z m-125-96l-64 0c-4 0-8 3-8 8 0 4 4 8 8 8l64 0c4 0 8-4 8-8 0-5-4-8-8-8z"/>
    </symbol>
  
    <symbol id="icon-train" viewBox="0 0 512 512">
      <path d="m185 54l131 0c4 0 8-3 8-8 0-4-4-8-8-8l-131 0c-4 0-8 4-8 8 0 5 4 8 8 8z m-59 226c-14 0-25 11-25 24 0 14 11 25 25 25 13 0 24-11 24-25 0-13-11-24-24-24z m0 32c-5 0-8-3-8-8 0-4 3-8 8-8 4 0 8 4 8 8 0 5-4 8-8 8z m260-32c-13 0-24 11-24 24 0 14 11 25 24 25 14 0 25-11 25-25 0-13-11-24-25-24z m0 32c-4 0-8-3-8-8 0-4 4-8 8-8 5 0 8 4 8 8 0 5-3 8-8 8z m6-312l-272 0c-28 0-51 23-51 51l0 302c0 5 3 8 8 8l3 0 0 56c0 16 13 30 29 30l13 0-18 18c0 0-33 33-33 33-2 2-3 6-2 9 2 3 5 5 8 5l358 0c3 0 6-2 8-5 1-3 0-7-2-9l-33-33c0 0-18-18-18-18l13 0c16 0 29-14 29-30l0-56 3 0c5 0 8-3 8-8l0-302c0-28-23-51-51-51z m-272 16l272 0c19 0 35 16 35 35l0 25-342 0 0-25c0-19 16-35 35-35z m307 329l-342 0 0-252 163 0 0 152-139 0c-4 0-8 4-8 8 0 5 4 9 8 9l294 0c4 0 8-4 8-9 0-4-4-8-8-8l-139 0 0-152 163 0z m-200 16l58 0 0 37-58 0z m-130 135l16-17 286 0 16 17z m286-33l-254 0 17-16 220 0z m33-46c0 7-6 13-13 13l-294 0c-7 0-13-6-13-13l0-56 115 0 0 45c0 4 3 8 8 8l74 0c5 0 8-4 8-8l0-45 115 0 0 56z"/>
    </symbol>
  
    <symbol id="icon-telegram" viewBox="0 0 512 512">
      <path d="m359 169l-222 85c-6 2-6 10 0 12l54 20 21 67c1 4 7 6 10 3l30-24c4-3 8-3 11-1l55 40c4 2 9 0 10-4l40-191c1-5-4-9-9-7z m-42 44l-88 81c-3 3-5 7-5 11l-3 22c-1 3-5 3-6 0l-11-40c-1-4 0-9 5-12l106-64c2-2 4 1 2 2z m148 45c0-41 0-82 0-123 0-2-1-4-4-6-67-41-134-81-200-122-3-2-5-2-8 0-67 40-134 81-201 122-2 1-3 3-3 6 0 82 0 163 0 245 0 3 1 4 3 6 67 41 134 82 202 122 2 2 4 2 6 0 67-40 134-81 201-122 3-2 4-4 4-7 0-40 0-81 0-121z m-13-1c0 38 0 76 0 114 0 4-1 6-4 8-62 38-124 75-186 113-4 2-6 3-10 0-62-38-124-75-186-113-3-2-4-4-4-8 0-76 0-152 0-227 0-4 1-6 4-8 62-38 125-76 187-114 3-2 5-2 8 0 62 38 124 76 186 113 4 2 5 5 5 10 0 37 0 75 0 112z"/>
    </symbol>
  
    <symbol id="icon-facebook" viewBox="0 0 512 512">
      <path d="m465 258c0 40 0 81 0 121 0 3-1 5-4 7-67 41-134 82-201 122-2 2-4 2-6 0-68-40-135-81-202-122-2-2-3-3-3-6 0-82 0-163 0-245 0-3 1-5 3-6 67-41 134-82 201-122 3-2 5-2 8 0 66 41 133 81 200 122 3 2 4 4 4 6 0 41 0 82 0 123z m-13-1c0-37 0-75 0-112 0-5-1-8-5-10-62-37-124-75-186-113-3-2-5-2-8 0-62 38-125 76-187 114-3 2-4 4-4 8 0 75 0 151 0 227 0 4 1 6 4 8 62 38 124 75 186 113 4 3 6 2 10 0 62-38 124-75 186-113 3-2 4-4 4-8 0-38 0-76 0-114z m-123-141c0 16 0 32 0 49-10 0-21 0-31 0-5 0-10 0-13 4-2 2-4 5-4 7-1 11-1 22-1 33 17 0 33 0 50 0-2 16-4 32-6 48-15 0-29 0-44 0 0 47 0 94 0 141-21 0-42 0-64 0 0-47 0-94 0-141-10 0-20 0-31 0 0-16 0-32 0-48 10 0 20 0 31 0 0-3 0-6 0-8 0-11 0-22 0-33 0-25 14-43 39-49 8-2 17-3 26-4 14 0 29 0 44 0 1 0 3 1 4 1z"/>
    </symbol>
  
    <symbol id="icon-twitter" viewBox="0 0 512 512">
      <path d="m465 257c0 41 0 81 0 122 0 3-1 5-4 7-67 41-134 82-201 122-2 2-4 2-6 0-68-40-135-81-202-122-2-2-3-3-3-6 0-82 0-163 0-245 0-3 1-5 3-6 67-41 134-82 201-122 3-2 5-2 8 0 66 41 133 81 200 122 3 2 4 4 4 6 0 41 0 82 0 122z m-13 0c0-37 0-75 0-113 0-4-1-6-5-8-62-38-124-76-186-114-3-2-5-2-8 0-62 38-125 76-187 114-3 2-4 4-4 7 0 76 0 152 0 229 0 3 1 5 4 7 62 38 124 75 186 113 4 3 6 2 10 0 62-38 124-75 186-113 3-2 4-4 4-8 0-38 0-76 0-114z m-198-47c-2-13-2-24 2-36 8-26 35-44 62-42 16 0 30 6 41 17 3 2 5 3 8 2 12-5 23-9 35-13-1 8-7 15-24 34 10-3 21-6 33-9-4 4-7 9-10 12-6 6-11 11-17 16-3 3-4 5-4 8-1 66-27 119-81 156-40 27-84 34-131 26-21-3-41-10-59-21-2-1-4-2-5-3 33 1 63-7 91-27-29-4-49-18-59-45 9 0 18 0 26 0-30-11-46-31-49-63 9 2 18 5 27 7 0 0 0-1 1-1-28-24-34-51-19-85 35 41 78 63 132 67z"/>
    </symbol>
  
    <symbol id="icon-instagram" viewBox="0 0 512 512">
      <path d="m49 257c0-40 0-81 0-121 0-4 1-6 4-8 66-40 133-80 199-121 4-2 6-2 10 0 66 41 133 81 199 122 3 1 4 3 4 6 0 82 0 163 0 244 0 4-1 5-4 7-67 41-134 82-201 122-2 2-4 2-6 0-68-41-135-81-202-122-3-2-3-4-3-7 0-40 0-81 0-122z m403 1c0-38 0-76 0-114 0-4-1-6-4-8-63-38-125-76-187-114-3-2-5-2-8 0-62 38-125 76-187 114-3 2-4 4-4 7 0 76 0 152 0 229 0 3 1 5 4 7 62 38 124 76 186 114 4 2 6 2 9 0 62-38 125-76 187-114 3-2 4-4 4-7 0-38 0-76 0-114z m-334-1c0-20 0-40 0-60-1-38 27-69 64-77 7-1 15-2 23-2 36 0 72-1 108 0 34 1 60 16 76 46 5 10 7 21 7 32 0 40 0 80 0 120 0 34-20 63-52 74-9 3-20 6-30 6-38 1-76 1-114 0-32-1-57-15-74-43-5-10-8-21-8-33 0-21 0-42 0-63z m21 0c0 20 0 40 0 61 0 17 6 31 19 42 14 11 29 15 46 16 35 0 71 0 106-1 8 0 16-1 24-3 24-7 41-29 41-54 1-41 1-82 0-122 0-11-3-22-9-31-14-18-33-26-55-26-36-1-72-1-107 0-6 0-12 0-18 1-25 6-48 27-47 59 0 19 0 39 0 58z m118 60c-36 0-65-30-65-65 0-36 30-65 65-65 36 0 66 30 66 65 0 35-30 65-66 65z m45-65c0-24-20-44-45-44-24 0-44 20-45 44 0 24 21 44 45 44 25 0 45-20 45-44z m28-56c-7 0-13-6-13-14-1-8 5-14 13-14 8 0 14 6 14 14 0 8-6 14-14 14z"/>
    </symbol>
  
    <symbol id="icon-fountain" viewBox="0 0 512 512">
      <path d="m504 439l-48 0 0-62c14-2 27-9 37-19 12-13 18-30 16-47l-5-73c-3-29-27-52-56-52-29 0-54 23-56 52l-5 73c-2 17 4 34 16 47 9 10 23 17 37 19l0 62-77 0 3-27c1-3 0-5-2-7-1-2-4-3-6-3l-52 0c10-7 19-17 24-29 2-3 1-6 0-8-2-3-4-4-7-4l-59 0 0-11c18-3 33-14 41-30 1-3 1-6 0-8-2-3-5-4-8-4l-83 0c-2 0-5 1-7 4-1 2-1 5 0 8 8 16 23 27 41 30l0 11-59 0c-3 0-5 1-7 4-1 2-2 5 0 8 5 12 14 22 24 29l-52 0c-2 0-5 1-6 3-2 2-3 4-2 7l3 27-76 0 0-62c14-2 27-9 37-19 11-13 17-30 16-47l-6-73c-2-29-27-52-56-52-29 0-53 23-55 52l-6 73c-1 17 5 34 16 47 10 10 23 17 37 19l0 62-47 0c-5 0-9 4-9 9 0 4 4 8 9 8l495 0c4 0 8-4 8-8 0-5-4-9-8-9z m-440-164c-4 0-8 4-8 8l0 4-11-11c-3-3-9-3-12 0-3 3-3 9 0 12l23 23 0 20-11-11c-3-3-9-3-12 0-3 3-3 9 0 12l23 23 0 5c-9-2-18-6-24-13-9-10-13-22-12-34l5-74c2-20 19-36 39-36 21 0 38 16 39 36l6 74c1 12-3 24-12 34-6 7-15 11-24 13l0-30 23-23c3-3 3-9 0-12-4-3-9-3-12 0l-11 11 0-23c0-4-4-8-9-8z m168 49l49 0c-7 6-16 9-25 9-9 0-18-3-24-9z m-27 53l103 0c-13 16-31 25-52 25-20 0-39-9-51-25z m141 62l-180 0-2-20 185 0z m102-164c-5 0-9 4-9 8l0 23-10-11c-4-3-9-3-12 0-4 3-4 9 0 12l23 23 0 30c-10-2-18-6-25-13-8-10-13-22-12-34l6-74c2-20 19-36 39-36 20 0 37 16 39 36l6 74c1 12-4 24-12 34-7 7-15 11-25 13l0-5 23-23c4-3 4-9 0-12-3-3-8-3-12 0l-11 11 0-20 23-23c4-3 4-9 0-12-3-3-8-3-12 0l-10 11 0-4c-1-4-4-8-9-8z m-148-33c-18 0-35 10-44 24-9-14-26-24-44-24-29 0-52 24-52 53l0 28c0 5 4 8 8 8 5 0 9-3 9-8l0-28c0-20 15-36 35-36 20 0 36 16 36 36 0 5 3 8 8 8 5 0 8-4 8-8 0-20 16-36 36-36 19 0 35 16 35 36l0 28c0 5 4 8 9 8 4 0 8-3 8-8l0-28c0-29-23-53-52-53z m-143-218c-36 0-65 29-65 65 0 36 29 65 65 65 36 0 65-29 65-65 0-36-29-65-65-65z m0 113c-26 0-48-22-48-48 0-27 22-48 48-48 27 0 48 21 48 48 0 26-21 48-48 48z"/>
    </symbol>
  
    <symbol id="icon-gmail" viewBox="0 0 512 512">
      <path d="m147 366l218 0c14 0 25-10 25-24l0-151c0-13-11-24-25-24l-218 0c-14 0-25 11-25 24l0 151c0 14 11 24 25 24z m-9-175c0-4 4-8 9-8l218 0c5 0 9 4 9 8l0 151c0 5-4 9-9 9l-218 0c-5 0-9-4-9-9z m32 148l-16 0 0-144 100 63c1 1 3 1 4 0l100-63 0 144-16 0 0-115-75 48c-3 2-7 3-11 3-4 0-7-1-11-3l-75-48 0 115z m-109-79c0-37 0-75 0-113 0-4 1-5 4-7 62-38 124-76 186-114 4-2 6-2 10 0 62 38 124 76 186 114 3 2 4 3 4 6 0 76 0 153 0 229 0 3-1 4-4 6-62 38-125 76-188 115-2 1-4 1-6-1-63-38-126-76-189-114-2-2-3-4-3-6 0-38 0-76 0-115z m377 1c0-36 0-71 1-107 0-4-2-6-5-7-58-36-116-71-174-107-3-1-5-2-8 0-58 36-116 71-175 107-2 2-3 3-3 7 0 71 0 142 0 213 0 4 1 6 3 7 59 36 117 71 175 107 3 2 5 2 8 0 58-36 117-71 175-107 3-2 4-4 4-7-1-35-1-71-1-106z"/>
    </symbol>
  
    <symbol id="icon-hotel" viewBox="0 0 512 512">
      <path d="m105 242l-32 0c-4 0-8 4-8 8l0 16c0 5 4 8 8 8 4 0 8-3 8-8l0-8 16 0 0 40c0 5 3 8 8 8 4 0 8-3 8-8l0-48c0-4-4-8-8-8z m122-208l10 7-4 10c-1 3 0 6 2 9 1 1 3 2 5 2 1 0 3-1 4-1l12-6 13 6c3 1 6 1 9-1 2-3 3-6 2-9l-4-10 9-7c3-2 4-6 2-9-1-3-4-6-7-6l-11 0-6-11c-3-5-11-5-14 0l-6 11-11 0c-3 0-6 3-7 6-2 3 0 7 2 9z m28-3l1-2 1 2c0 1 2 2 3 3-1 2-1 3-1 5-1 0-2 0-3 0 0 0-1 0-2 0 0-2 0-4-1-5 1-1 2-2 2-3z m-198 259c-39 0-40 103-40 104 0 19 14 35 32 39l0 40c0 4 4 8 8 8 4 0 8-4 8-8l0-40c18-4 32-20 32-39 0-1-1-104-40-104z m0 127c-13 0-24-10-24-23 0-40 11-88 24-88 13 0 24 48 24 88 0 13-11 23-24 23z m99-383l9 7-4 10c-1 3 0 6 2 9 2 1 4 2 6 2 1 0 2-1 3-1l13-6 12 6c3 1 6 1 9-1 2-3 3-6 2-9l-3-10 8-7c3-2 4-6 3-9-1-3-4-6-8-6l-11 0-6-11c-2-5-11-5-14 0l-6 11-11 0c-3 0-6 3-7 6-1 3 0 7 3 9z m28-3l0-2 1 2c1 1 2 2 3 3-1 2-1 3-1 5-1 0-1 0-2 0-1 0-2 0-3 0 1-2 0-4-1-5 1-1 2-2 3-3z m123 3l9 7-4 10c-1 3 0 6 2 9 2 1 4 2 6 2 1 0 2-1 3-1l13-6 12 6c3 1 7 1 9-1 2-3 3-6 2-9l-3-10 8-7c3-2 4-6 3-9-1-3-4-6-7-6l-11 0-6-11c-3-5-12-5-15 0l-5 11-11 0c-4 0-7 3-8 6-1 3 0 7 3 9z m28-3l1-2 0 2c1 1 2 2 3 3 0 2-1 3-1 5 0 0-1 0-2 0-1 0-2 0-2 0 0-2 0-4-1-5 1-1 1-2 2-3z m-259 3l9 7-3 10c-2 3-1 6 2 9 1 1 3 2 5 2 1 0 2-1 3-1l13-6 13 6c2 1 6 1 8-1 3-3 3-6 2-9l-3-10 9-7c2-2 3-6 2-9-1-3-4-5-7-5l-11 0-6-12c-3-5-12-5-14 0l-6 12-11 0c-4 0-7 2-8 5-1 3 0 7 3 9z m28-3l1-2 1 2c0 1 1 2 3 3-1 2-1 3-1 5-1 0-2 0-3 0-1 0-1 0-2 0 0-2 0-4-1-5 1-1 1-2 2-3z m283 3l9 7-4 10c-1 3 0 6 2 9 2 1 3 2 5 2 2 0 3-1 4-1l12-6 13 6c3 1 6 1 9-1 2-3 3-6 2-9l-4-10 9-7c3-2 4-6 3-9-2-3-5-6-8-6l-11 0-6-11c-2-5-11-5-14 0l-6 11-11 0c-3 0-6 3-7 6-1 3 0 7 3 9z m27-3l1-2 1 2c1 1 2 2 3 3-1 2-1 3-1 5-1 0-2 0-2 0-1 0-2 0-3 0 0-2 0-4-1-5 1-1 2-2 2-3z m57 402c-2 0-3 0-4 1-6-10-16-17-28-17-12 0-22 7-28 17-1-1-2-1-4-1-13 0-24 11-24 24 0 13 11 24 24 24l64 0c13 0 24-11 24-24 0-13-11-24-24-24z m0 32l-64 0c-4 0-8-3-8-8 0-4 4-8 8-8 2 0 3 1 4 2 3 1 5 1 8 0 2-1 4-3 4-5 2-8 9-13 16-13 7 0 14 5 15 13 1 2 3 4 5 5 3 1 5 1 7 0 6-4 13 0 13 6 0 5-4 8-8 8z m-366-318l-32 0c-4 0-8 3-8 8l0 48c0 4 4 7 8 7l32 0c4 0 8-3 8-7l0-48c0-5-4-8-8-8z m-8 48l-16 0 0-32 16 0z m262-80c-4 0-7 4-7 8l0 302c0 5 3 8 7 8 5 0 8-3 8-8l0-302c0-4-3-8-8-8z m40 183c0 4 4 8 8 8l32 0c4 0 8-4 8-8l0-48c0-4-4-8-8-8l-32 0c-4 0-8 4-8 8z m16-40l16 0 0 32-16 0z m72-191c-5 0-8 4-8 8l0 8-446 0 0-8c0-4-3-8-8-8-4 0-8 4-8 8l0 191c0 5 4 8 8 8 5 0 8-3 8-8l0-167 446 0 0 318c0 5 3 8 8 8 4 0 8-3 8-8l0-342c0-4-4-8-8-8z m-88 327c0 4 4 7 8 7l32 0c4 0 8-3 8-7l0-48c0-5-4-8-8-8l-32 0c-4 0-8 3-8 8z m16-40l16 0 0 32-16 0z m-8-143l32 0c4 0 8-4 8-8l0-48c0-5-4-8-8-8l-32 0c-4 0-8 3-8 8l0 48c0 4 4 8 8 8z m8-48l16 0 0 32-16 0z m-135 48l32 0c4 0 8-4 8-8l0-48c0-5-4-8-8-8l-32 0c-5 0-8 3-8 8l0 48c0 4 3 8 8 8z m8-48l16 0 0 32-16 0z m-127 262l0-302c0-4-4-8-8-8-5 0-8 4-8 8l0 302c0 5 3 8 8 8 4 0 8-3 8-8z m198 24l-222 0c-5 0-8 4-8 8l0 16c0 5 3 8 8 8 4 0 8-3 8-8l0-8 214 0c5 0 8-3 8-8 0-4-3-8-8-8z m-167-151c0 4 4 8 8 8l32 0c4 0 8-4 8-8l0-48c0-4-4-8-8-8l-32 0c-4 0-8 4-8 8z m16-40l16 0 0 32-16 0z m-8-47l32 0c5 0 8-4 8-8l0-48c0-5-3-8-8-8l-32 0c-4 0-8 3-8 8l0 48c0 4 4 8 8 8z m8-48l16 0 0 32-16 0z m-32 183c0 4 4 8 8 8l8 0 0 71c0 5 4 8 8 8 5 0 8-3 8-8l0-71 40 0 0 32c-4 0-8 3-8 7 0 5 4 8 8 8l0 24c0 5 4 8 8 8 4 0 8-3 8-8l0-24c4 0 8-3 8-8 0-4-4-7-8-7l0-32 40 0 0 71c0 5 3 8 8 8 4 0 8-3 8-8l0-71 7 0c5 0 8-4 8-8 0-5-3-8-8-8l-143 0c-4 0-8 3-8 8z m96-48c0 4 3 8 8 8l32 0c4 0 8-4 8-8l0-48c0-4-4-8-8-8l-32 0c-5 0-8 4-8 8z m16-40l16 0 0 32-16 0z m211 218l-484 0c-5 0-9 4-9 8 0 4 4 7 9 7l484 0c4 0 8-4 8-7 0-4-4-8-8-8z"/>
    </symbol>
  
    <symbol id="icon-travel" viewBox="0 0 512 512">
      <path d="m170 163l-6-22c-13 4-25 8-37 13l8 21c11-5 23-9 35-12z m-68 27l-11-19c-11 6-23 13-33 21l13 18c10-7 20-14 31-20z m-102 55l17 14c8-9 17-18 26-26l-16-16c-9 8-18 18-27 28z m487-9l-16 15c8 9 16 18 23 28l18-13c-8-11-16-21-25-30z m-72-32c10 6 20 14 29 22l15-18c-10-8-21-16-31-23z m-22-39c-11-6-24-11-36-15l-7 21c11 4 23 9 33 14z m-204 15l16 0 12-19 25 0-16 53 0 2c0 6 6 12 13 12l22 0 35-66 28 1c14 0 25-11 25-25 0-6-3-13-7-17-5-5-12-7-19-7l-27 1-35-65-22 0c-7 0-13 5-13 12l0 1 16 54-25 0-13-19-15 0c-6 0-11 5-11 11l0 60c0 6 5 11 11 11z m7-64l12 18 58 0-20-66 4 0 36 65 38-1c2 0 4 1 5 2 2 2 2 3 2 5 0 4-3 7-7 7l-38-1-36 66-4 0 20-68-58 0-12 19c0 0 0-46 0-46z m100 151c-15-3-30-5-45-5-95 0-175 65-196 157-3 14-5 29-5 43l22 0c1-9 1-18 3-27 12 3 26 9 30 12 0 2-1 3-1 4 0 4-1 7-1 11l22 0c1-2 1-5 1-7 1-3 1-5 1-8 2-14-14-25-47-34 18-62 67-108 128-123-3 7-6 15-7 25-1 5-1 9-2 13-3 16-5 33 16 43 13 5 21 6 28 7 3 0 6 0 9 1 1 3 1 13 1 16-1 5-1 9 0 13 2 8 8 32 27 54l34 0c-33-21-38-58-39-59l0-4c0-1 0-2 0-3 1-11 2-33-15-38-5-2-10-3-15-3-6-1-12-1-20-5-6-3-6-3-4-18 1-4 2-9 2-15 2-15 8-25 14-32 5 0 9 0 14 0 13 0 27 1 40 4 47 11 86 39 112 79 17 28 26 59 27 90-2 1-4 3-7 4l30 0c0-37-11-73-31-106-29-45-74-77-126-89z m187 195l-466 0c-4 0-8 4-8 9 0 5 4 9 8 9l466 0c5 0 8-4 8-9 0-5-3-9-8-9z"/>
    </symbol>
  
    <symbol id="icon-hash" viewBox="0 0 512 512">
      <path d="m6 7l346 0"/>
    </symbol>
  
</svg>
